<?xml version="1.0" encoding="UTF-8" standalone="no"?>
<!-- Created with Inkscape (http://www.inkscape.org/) -->

<svg
   xmlns:dc="http://purl.org/dc/elements/1.1/"
   xmlns:cc="http://creativecommons.org/ns#"
   xmlns:rdf="http://www.w3.org/1999/02/22-rdf-syntax-ns#"
   xmlns:svg="http://www.w3.org/2000/svg"
   xmlns="http://www.w3.org/2000/svg"
   xmlns:sodipodi="http://sodipodi.sourceforge.net/DTD/sodipodi-0.dtd"
   xmlns:inkscape="http://www.inkscape.org/namespaces/inkscape"
   width="256"
   height="256"
   id="svg2985"
   version="1.1"
   inkscape:version="0.48.2 r9819"
   sodipodi:docname="New document 2">
  <defs
     id="defs2987" />
  <sodipodi:namedview
     id="base"
     pagecolor="#ffffff"
     bordercolor="#666666"
     borderopacity="1.0"
     inkscape:pageopacity="0.0"
     inkscape:pageshadow="2"
     inkscape:zoom="2.75"
     inkscape:cx="110.1861"
     inkscape:cy="131.00856"
     inkscape:current-layer="layer1"
     showgrid="true"
     inkscape:document-units="px"
     inkscape:grid-bbox="true"
     inkscape:window-width="1319"
     inkscape:window-height="1016"
     inkscape:window-x="401"
     inkscape:window-y="0"
     inkscape:window-maximized="0" />
  <metadata
     id="metadata2990">
    <rdf:RDF>
      <cc:Work
         rdf:about="">
        <dc:format>image/svg+xml</dc:format>
        <dc:type
           rdf:resource="http://purl.org/dc/dcmitype/StillImage" />
        <dc:title></dc:title>
      </cc:Work>
    </rdf:RDF>
  </metadata>
  <g
     id="layer1"
     inkscape:label="Layer 1"
     inkscape:groupmode="layer"
     transform="translate(0,192)">
    <path
       style="opacity:0.98999999;fill:#000000;fill-opacity:1;stroke:#000000;stroke-width:6;stroke-linecap:round;stroke-linejoin:round;stroke-miterlimit:4;stroke-opacity:1;stroke-dasharray:none;stroke-dashoffset:0"
       d="M 128 60.59375 C 109.37131 60.59375 92.445804 67.821822 79.84375 79.625 L 86.8125 84.6875 C 97.092617 73.657297 111.73301 66.75 128 66.75 C 145.72606 66.75 161.55251 74.94689 171.875 87.75 L 179.09375 82.53125 C 166.25256 69.016239 148.11475 60.59375 128 60.59375 z M 73.375 86.53125 C 63.473491 98.660853 57.53125 114.15181 57.53125 131.03125 C 57.53125 169.94167 89.089582 201.5 128 201.5 C 166.91042 201.5 198.46875 169.94167 198.46875 131.03125 C 198.46875 115.95111 193.72746 101.98791 185.65625 90.53125 C 183.11572 92.768304 180.34097 94.59926 177.375 95.9375 C 181.80565 103.98306 184.3125 113.22873 184.3125 123.0625 C 184.3125 154.16243 159.09993 179.375 128 179.375 C 96.900065 179.375 71.6875 154.16243 71.6875 123.0625 C 71.6875 111.99352 74.889868 101.67485 80.40625 92.96875 C 77.850445 91.192638 75.474439 89.036099 73.375 86.53125 z "
       transform="translate(0,-192)"
       id="path3898" />
  </g>
</svg>
