<?xml version="1.0" encoding="UTF-8" standalone="no"?>
<!-- Created with Inkscape (http://www.inkscape.org/) -->

<svg
   xmlns:dc="http://purl.org/dc/elements/1.1/"
   xmlns:cc="http://creativecommons.org/ns#"
   xmlns:rdf="http://www.w3.org/1999/02/22-rdf-syntax-ns#"
   xmlns:svg="http://www.w3.org/2000/svg"
   xmlns="http://www.w3.org/2000/svg"
   xmlns:sodipodi="http://sodipodi.sourceforge.net/DTD/sodipodi-0.dtd"
   xmlns:inkscape="http://www.inkscape.org/namespaces/inkscape"
   width="256"
   height="256"
   id="svg2985"
   version="1.1"
   inkscape:version="0.48.2 r9819"
   sodipodi:docname="first.svg">
  <defs
     id="defs2987" />
  <sodipodi:namedview
     id="base"
     pagecolor="#ffffff"
     bordercolor="#666666"
     borderopacity="1.0"
     inkscape:pageopacity="0.0"
     inkscape:pageshadow="2"
     inkscape:zoom="2.75"
     inkscape:cx="110.1861"
     inkscape:cy="131.00856"
     inkscape:current-layer="layer1"
     showgrid="true"
     inkscape:document-units="px"
     inkscape:grid-bbox="true"
     inkscape:window-width="1319"
     inkscape:window-height="1016"
     inkscape:window-x="401"
     inkscape:window-y="0"
     inkscape:window-maximized="0" />
  <metadata
     id="metadata2990">
    <rdf:RDF>
      <cc:Work
         rdf:about="">
        <dc:format>image/svg+xml</dc:format>
        <dc:type
           rdf:resource="http://purl.org/dc/dcmitype/StillImage" />
        <dc:title></dc:title>
      </cc:Work>
    </rdf:RDF>
  </metadata>
  <g
     id="layer1"
     inkscape:label="Layer 1"
     inkscape:groupmode="layer"
     transform="translate(0,192)">
    <path
       style="opacity:0.98999999;fill:#000000;fill-opacity:1;stroke:#000000;stroke-width:5.39847612;stroke-linecap:round;stroke-linejoin:round;stroke-miterlimit:4;stroke-opacity:1;stroke-dasharray:none;stroke-dashoffset:0"
       d="m 128.01426,-138.97974 c -15.05837,-0.12786 -29.33783,7.72626 -38.918852,19.06338 1.877331,1.69035 3.754663,3.38069 5.631994,5.07104 9.571018,-13.48357 27.441828,-21.55703 43.697858,-16.48447 10.4624,3.01733 19.20371,10.50675 25.04783,19.55215 1.94468,-1.74252 3.88936,-3.48505 5.83404,-5.22757 -9.69237,-12.85127 -24.86739,-22.12987 -41.29287,-21.97453 z m -44.146756,25.98129 C 64.9314,-83.82359 66.860424,-41.821276 90.232644,-15.609954 102.75546,-1.1387933 123.76017,6.2152527 142.24502,-0.05840977 164.936,-7.4560843 179.42568,-29.824737 183.50689,-52.484612 c 3.52298,-19.096941 0.7202,-39.533538 -8.89609,-56.507088 -3.7356,3.59807 -8.69152,5.44817 -4.57098,10.870349 8.08515,24.084958 2.23376,53.957171 -18.4269,69.956943 -12.75587,10.21433 -31.96914,10.892591 -45.29148,1.358243 -20.768005,-14.386379 -27.79195,-42.795721 -21.734103,-66.504486 -0.143664,-5.734221 8.060919,-12.212519 1.98311,-16.189879 -0.976125,-1.10529 -1.876976,-2.27651 -2.702943,-3.49792 z"
       id="path3898"
       inkscape:connector-curvature="0" />
    <path
       style="opacity:0.98999999;fill:#000000;fill-opacity:1;stroke:#000000;stroke-width:2.54581976;stroke-linecap:round;stroke-linejoin:round;stroke-miterlimit:4;stroke-opacity:1;stroke-dasharray:none;stroke-dashoffset:0"
       d="m 127.34662,-162.60266 c -22.12814,-0.18927 -43.111644,11.43694 -57.190866,28.21894 2.758719,2.50217 5.51744,5.00432 8.276158,7.5065 14.064515,-19.95931 40.325478,-31.9102 64.213568,-24.40146 15.3744,4.46647 28.21965,15.55281 36.80752,28.94244 2.85769,-2.5794 5.71537,-5.15879 8.57306,-7.73821 -14.24282,-19.02332 -36.54237,-32.75815 -60.67944,-32.52821 z"
       id="path3898-4"
       inkscape:connector-curvature="0"
       sodipodi:nodetypes="ccccccc" />
    <path
       style="opacity:0.98999999000000005;fill:#000000;fill-opacity:1;stroke:#000000;stroke-width:0.01000000000000000;stroke-linecap:round;stroke-linejoin:round;stroke-miterlimit:4;stroke-opacity:1;stroke-dasharray:none;stroke-dashoffset:0"
       d="m 127.42383,-184.52319 c -29.344561,-0.23226 -57.171214,14.03501 -75.841949,34.62929 3.658395,3.07057 7.316788,6.14112 10.975181,9.21171 18.651228,-24.49336 53.476408,-39.15907 85.154898,-29.94461 20.3883,5.48109 37.42265,19.08586 48.81119,35.51713 3.78965,-3.16535 7.57926,-6.33068 11.36891,-9.49605 -18.88769,-23.34474 -48.45957,-40.19964 -80.46823,-39.91747 z"
       id="path3898-4-2"
       inkscape:connector-curvature="0"
       sodipodi:nodetypes="ccccccc" />
  </g>
</svg>
