<?xml version="1.0" encoding="UTF-8" standalone="no"?>
<!-- Created with Inkscape (http://www.inkscape.org/) -->

<svg
   xmlns:dc="http://purl.org/dc/elements/1.1/"
   xmlns:cc="http://creativecommons.org/ns#"
   xmlns:rdf="http://www.w3.org/1999/02/22-rdf-syntax-ns#"
   xmlns:svg="http://www.w3.org/2000/svg"
   xmlns="http://www.w3.org/2000/svg"
   xmlns:sodipodi="http://sodipodi.sourceforge.net/DTD/sodipodi-0.dtd"
   xmlns:inkscape="http://www.inkscape.org/namespaces/inkscape"
   width="64px"
   height="64px"
   id="svg4647"
   version="1.1"
   inkscape:version="0.48.2 r9819"
   sodipodi:docname="New document 19">
  <defs
     id="defs4649" />
  <sodipodi:namedview
     id="base"
     pagecolor="#ffffff"
     bordercolor="#666666"
     borderopacity="1.0"
     inkscape:pageopacity="0.0"
     inkscape:pageshadow="2"
     inkscape:zoom="7.7781746"
     inkscape:cx="36.901036"
     inkscape:cy="32"
     inkscape:current-layer="layer1"
     showgrid="true"
     inkscape:document-units="px"
     inkscape:grid-bbox="true"
     inkscape:window-width="1318"
     inkscape:window-height="970"
     inkscape:window-x="83"
     inkscape:window-y="0"
     inkscape:window-maximized="0" />
  <metadata
     id="metadata4652">
    <rdf:RDF>
      <cc:Work
         rdf:about="">
        <dc:format>image/svg+xml</dc:format>
        <dc:type
           rdf:resource="http://purl.org/dc/dcmitype/StillImage" />
        <dc:title></dc:title>
      </cc:Work>
    </rdf:RDF>
  </metadata>
  <g
     id="layer1"
     inkscape:label="Layer 1"
     inkscape:groupmode="layer">
    <text
       xml:space="preserve"
       style="font-size:14px;font-style:normal;font-variant:normal;font-weight:normal;font-stretch:normal;text-align:start;line-height:125%;letter-spacing:0px;word-spacing:0px;writing-mode:lr-tb;text-anchor:start;fill:#000000;fill-opacity:1;stroke:none;font-family:Georgia;-inkscape-font-specification:Georgia;fill-rule:nonzero"
       x="1.4142135"
       y="11.031273"
       id="text6768"
       sodipodi:linespacing="125%"><tspan
         sodipodi:role="line"
         id="tspan6770"
         x="1.4142135"
         y="11.031273">happy</tspan></text>
    <g
       id="g6754"
       transform="matrix(0.63431644,-0.46937514,0.46149568,0.62366809,-2.4140881,25.862945)">
      <path
         transform="matrix(0.59428027,0,0,0.62015788,15.055054,29.908639)"
         d="m 52.711596,30.573133 c 0,11.502716 -9.209673,20.827509 -20.57038,20.827509 -11.360706,0 -20.570379,-9.324793 -20.570379,-20.827509 0,-11.502715 9.209673,-20.8275085 20.570379,-20.8275085 11.360707,0 20.57038,9.3247935 20.57038,20.8275085 z"
         sodipodi:ry="20.827509"
         sodipodi:rx="20.570379"
         sodipodi:cy="30.573133"
         sodipodi:cx="32.141216"
         id="path5204"
         style="opacity:0.98999999;fill:#000000;fill-opacity:1;stroke:#000000;stroke-width:0.5;stroke-linecap:round;stroke-linejoin:miter;stroke-miterlimit:4;stroke-opacity:1;stroke-dasharray:none;stroke-dashoffset:0"
         sodipodi:type="arc" />
      <path
         transform="matrix(0.59428027,0,0,0.62015788,15.666283,41.868216)"
         d="m 45.254833,-19.95286 c 0,8.023499 -6.792133,14.5278302 -15.170654,14.5278302 -8.378521,0 -15.170654,-6.5043312 -15.170654,-14.5278302 0,-8.023499 6.792133,-14.52783 15.170654,-14.52783 8.378521,0 15.170654,6.504331 15.170654,14.52783 z"
         sodipodi:ry="14.52783"
         sodipodi:rx="15.170654"
         sodipodi:cy="-19.95286"
         sodipodi:cx="30.084179"
         id="path6662"
         style="opacity:0.98999999;fill:#000000;fill-opacity:1;stroke:#000000;stroke-width:0.5;stroke-linecap:round;stroke-linejoin:miter;stroke-miterlimit:4;stroke-opacity:1;stroke-dasharray:none;stroke-dashoffset:0"
         sodipodi:type="arc" />
      <path
         inkscape:connector-curvature="0"
         id="path6664"
         d="m 32.99983,8.2877156 c -3.797752,0 -6.860912,3.0418594 -6.860912,6.8118294 0,3.76997 3.06316,6.840815 6.860912,6.840815 3.797753,0 6.88869,-3.070845 6.88869,-6.840815 0,-3.76997 -3.090937,-6.8118294 -6.88869,-6.8118294 z m 1.19441,3.2754754 c 0.504906,0 0.91664,0.50479 0.91664,1.130474 0,0.625683 -0.411734,1.130473 -0.91664,1.130473 -0.504905,0 -0.91664,-0.50479 -0.91664,-1.130473 0,-0.625684 0.411735,-1.130474 0.91664,-1.130474 z m -3.194352,0.05797 c 0.504906,0 0.91664,0.50479 0.91664,1.130474 0,0.625683 -0.411734,1.130473 -0.91664,1.130473 -0.504905,0 -0.91664,-0.50479 -0.91664,-1.130473 0,-0.625684 0.411735,-1.130474 0.91664,-1.130474 z"
         style="opacity:0.98999999;fill:#000000;fill-opacity:1;stroke:#000000;stroke-width:0.45939779;stroke-linecap:round;stroke-linejoin:miter;stroke-miterlimit:4;stroke-opacity:1;stroke-dasharray:none;stroke-dashoffset:0" />
      <path
         transform="matrix(0.88886315,0,0,0.9275682,19.794704,21.901375)"
         sodipodi:end="3.0298648"
         sodipodi:start="0"
         d="m 17.484822,-6.3249836 c 0,1.7751105 -1.32389,3.2141218 -2.956992,3.2141218 -1.505524,0 -2.770696,-1.229526 -2.938555,-2.8557615 l 2.938555,-0.3583603 z"
         sodipodi:ry="3.2141218"
         sodipodi:rx="2.9569919"
         sodipodi:cy="-6.3249836"
         sodipodi:cx="14.52783"
         id="path6690"
         style="opacity:0.98999999;fill:#ff0000;fill-opacity:1;stroke:#000000;stroke-width:0.5;stroke-linecap:round;stroke-linejoin:miter;stroke-miterlimit:4;stroke-opacity:1;stroke-dasharray:none;stroke-dashoffset:0"
         sodipodi:type="arc" />
      <rect
         y="7.2098227"
         x="27.565512"
         height="1.7887902"
         width="10.970551"
         id="rect6692"
         style="opacity:0.98999999;fill:#00fd00;fill-opacity:1;stroke:#00ff00;stroke-width:0.45400473;stroke-linecap:round;stroke-linejoin:miter;stroke-miterlimit:4;stroke-opacity:1;stroke-dasharray:none;stroke-dashoffset:0" />
      <rect
         y="1.3664414"
         x="29.508213"
         height="5.7241287"
         width="6.8565941"
         id="rect6694"
         style="opacity:0.98999999;fill:#00fd00;fill-opacity:1;stroke:#00ff00;stroke-width:0.45400473;stroke-linecap:round;stroke-linejoin:miter;stroke-miterlimit:4;stroke-opacity:1;stroke-dasharray:none;stroke-dashoffset:0" />
      <path
         transform="translate(17.034846,32.784042)"
         d="m 16.713433,-7.8034797 c 0,0.4615287 -0.374143,0.8356717 -0.835672,0.8356717 -0.461529,0 -0.835672,-0.374143 -0.835672,-0.8356717 0,-0.4615287 0.374143,-0.8356716 0.835672,-0.8356716 0.461529,0 0.835672,0.3741429 0.835672,0.8356716 z"
         sodipodi:ry="0.83567166"
         sodipodi:rx="0.83567166"
         sodipodi:cy="-7.8034797"
         sodipodi:cx="15.877761"
         id="path6696"
         style="opacity:0.98999999;fill:#007e00;fill-opacity:1;stroke:#00ff00;stroke-width:0.5;stroke-linecap:round;stroke-linejoin:miter;stroke-miterlimit:4;stroke-opacity:1;stroke-dasharray:none;stroke-dashoffset:0"
         sodipodi:type="arc" />
      <path
         d="m 16.713433,-7.8034797 c 0,0.4615287 -0.374143,0.8356717 -0.835672,0.8356717 -0.461529,0 -0.835672,-0.374143 -0.835672,-0.8356717 0,-0.4615287 0.374143,-0.8356716 0.835672,-0.8356716 0.461529,0 0.835672,0.3741429 0.835672,0.8356716 z"
         sodipodi:ry="0.83567166"
         sodipodi:rx="0.83567166"
         sodipodi:cy="-7.8034797"
         sodipodi:cx="15.877761"
         id="path6696-6"
         style="opacity:0.98999999;fill:#007e00;fill-opacity:1;stroke:#00ff00;stroke-width:0.5;stroke-linecap:round;stroke-linejoin:miter;stroke-miterlimit:4;stroke-opacity:1;stroke-dasharray:none;stroke-dashoffset:0"
         sodipodi:type="arc"
         transform="translate(17.034846,40.047956)" />
      <path
         d="m 16.713433,-7.8034797 c 0,0.4615287 -0.374143,0.8356717 -0.835672,0.8356717 -0.461529,0 -0.835672,-0.374143 -0.835672,-0.8356717 0,-0.4615287 0.374143,-0.8356716 0.835672,-0.8356716 0.461529,0 0.835672,0.3741429 0.835672,0.8356716 z"
         sodipodi:ry="0.83567166"
         sodipodi:rx="0.83567166"
         sodipodi:cy="-7.8034797"
         sodipodi:cx="15.877761"
         id="path6696-0"
         style="opacity:0.98999999;fill:#ff0200;fill-opacity:1;stroke:none"
         sodipodi:type="arc"
         transform="translate(17.034846,36.415996)" />
      <path
         inkscape:connector-curvature="0"
         id="path6732"
         d="M 53.988924,31.324637 C 44.806394,20.655389 38.885583,24.439824 38.885583,24.439824"
         style="fill:none;stroke:#241012;stroke-width:0.8340621px;stroke-linecap:butt;stroke-linejoin:miter;stroke-opacity:1" />
      <path
         inkscape:connector-curvature="0"
         id="path6732-3"
         d="M 12.761579,31.641569 C 21.944109,20.972321 27.86492,24.756756 27.86492,24.756756"
         style="fill:none;stroke:#241012;stroke-width:0.8340621px;stroke-linecap:butt;stroke-linejoin:miter;stroke-opacity:1" />
      <path
         inkscape:connector-curvature="0"
         id="path6752"
         d="m 33.041171,13.602571 0,2.142748 -3.985511,1.071374 z"
         style="fill:#ff9521;fill-opacity:1;stroke:none" />
    </g>
    <text
       xml:space="preserve"
       style="font-size:14px;font-style:normal;font-variant:normal;font-weight:normal;font-stretch:normal;text-align:start;line-height:125%;letter-spacing:0px;word-spacing:0px;writing-mode:lr-tb;text-anchor:start;fill:#000000;fill-opacity:1;stroke:none;font-family:Georgia;-inkscape-font-specification:Georgia"
       x="15.427784"
       y="60.271618"
       id="text6772"
       sodipodi:linespacing="125%"><tspan
         sodipodi:role="line"
         id="tspan6774"
         x="15.427784"
         y="60.271618">holiday</tspan></text>
  </g>
</svg>
